<?xml version="1.0" encoding="utf-8"?>
<!-- Generator: Adobe Illustrator 16.0.0, SVG Export Plug-In . SVG Version: 6.00 Build 0)  -->
<!DOCTYPE svg PUBLIC "-//W3C//DTD SVG 1.1//EN" "http://www.w3.org/Graphics/SVG/1.1/DTD/svg11.dtd">
<svg version="1.1" id="Capa_1" xmlns="http://www.w3.org/2000/svg" xmlns:xlink="http://www.w3.org/1999/xlink" x="0px" y="0px"
	 width="32px" height="32px" viewBox="0 0 32 32" enable-background="new 0 0 32 32" xml:space="preserve">
<polygon fill="#FFFFFF" points="26.5,22 24.5,15.778 22.5,14 22.5,20 "/>
<path fill="#AAAAAA" d="M4.5,21.5v-9c0,0,0-2,2-2h2c0,0,2,0,2,2v9H4.5z"/>
<path fill="none" stroke="#4D5152" stroke-miterlimit="10" d="M4.5,21.5v-9c0,0,0-2,2-2h2c0,0,2,0,2,2v9H4.5z"/>
<path fill="#FFFFFF" d="M7.5,24.5h13h5h3c0,0,1,0,1-1v-1c0,0,0-1-1-1h-21V24.5z"/>
<path fill="#FFFFFF" d="M23.172,9.171l5.656,5.658c0,0-2.828,2.828-5.656,0C20.343,12,23.172,9.171,23.172,9.171z"/>
<circle fill="#67DDE0" cx="28.121" cy="9.879" r="1"/>
<path fill="#AAAAAA" d="M10.5,21.5v-5h5c0,0,2,0,2,2v3H10.5z"/>
<line fill="none" stroke="#4D5152" stroke-miterlimit="10" x1="22.5" y1="14" x2="22.5" y2="20"/>
<line fill="none" stroke="#4D5152" stroke-miterlimit="10" x1="24.5" y1="15.778" x2="26.5" y2="22"/>
<path fill="none" stroke="#4D5152" stroke-miterlimit="10" d="M7.5,24.5h13h5h3c0,0,1,0,1-1v-1c0,0,0-1-1-1h-21V24.5z"/>
<path fill="none" stroke="#4D5152" stroke-miterlimit="10" d="M23.172,9.171l5.656,5.658c0,0-2.828,2.828-5.656,0
	C20.343,12,23.172,9.171,23.172,9.171z"/>
<line fill="none" stroke="#4D5152" stroke-miterlimit="10" x1="27.768" y1="10.233" x2="26.354" y2="11.647"/>
<circle fill="none" stroke="#4D5152" stroke-miterlimit="10" cx="28.121" cy="9.879" r="1"/>
<path fill="none" stroke="#4D5152" stroke-miterlimit="10" d="M10.5,21.5v-5h5c0,0,2,0,2,2v3H10.5z"/>
<path fill="#FFFFFF" d="M2.5,22.5v-4c0,0,0-2,2-2h6c0,0,2,0,2,2v6h-7L2.5,22.5z"/>
<path fill="none" stroke="#4D5152" stroke-miterlimit="10" d="M2.5,22.5v-4c0,0,0-2,2-2h6c0,0,2,0,2,2v6h-7L2.5,22.5z"/>
<circle fill="#AAAAAA" cx="6" cy="23" r="3.5"/>
<circle fill="none" stroke="#4D5152" stroke-miterlimit="10" cx="6" cy="23" r="3.5"/>
<circle fill="#AAAAAA" cx="23" cy="23" r="3.5"/>
<circle fill="none" stroke="#4D5152" stroke-miterlimit="10" cx="23" cy="23" r="3.5"/>
<path fill="#4D5152" d="M24.5,15.778"/>
<circle fill="#4D5152" cx="6" cy="23" r="1"/>
<circle fill="#4D5152" cx="23" cy="23" r="1"/>
</svg>
